<svg xmlns="http://www.w3.org/2000/svg" viewBox="0 0 100 100" width="100" height="100">
  <defs>
    <linearGradient id="grad" x1="0%" y1="0%" x2="100%" y2="100%">
      <stop offset="0%" style="stop-color:#007bff;stop-opacity:1" />
      <stop offset="100%" style="stop-color:#00bfa5;stop-opacity:1" />
    </linearGradient>
  </defs>
  <path fill="url(#grad)" d="M50,10 C77.61,10 100,32.39 100,60 C100,87.61 77.61,110 50,110 C22.39,110 0,87.61 0,60 C0,32.39 22.39,10 50,10 Z M50,20 C27.91,20 10,37.91 10,60 C10,82.09 27.91,100 50,100 C72.09,100 90,82.09 90,60 C90,37.91 72.09,20 50,20 Z" transform="translate(0, -10)"/>
  <path fill="url(#grad)" d="M50,40 C61.05,40 70,48.95 70,60 C70,71.05 61.05,80 50,80 C38.95,80 30,71.05 30,60 C30,48.95 38.95,40 50,40 Z M50,50 C44.48,50 40,54.48 40,60 C40,65.52 44.48,70 50,70 C55.52,70 60,65.52 60,60 C60,54.48 55.52,50 50,50 Z" transform="translate(0, -10)"/>
  <text x="50" y="65" font-family="Poppins, sans-serif" font-size="30" font-weight="700" fill="#ffffff" text-anchor="middle" dominant-baseline="middle">P</text>
</svg>